<?xml version="1.0" encoding="UTF-8"?>
<svg width="200" height="200" viewBox="0 0 200 200" xmlns="http://www.w3.org/2000/svg">
  <!-- Plate -->
  <circle cx="100" cy="110" r="80" fill="#f5f5f5" stroke="#e0e0e0" stroke-width="2"/>
  
  <!-- Burger -->
  <ellipse cx="100" cy="120" rx="60" ry="10" fill="#c68c53" stroke="#a67245" stroke-width="1"/> <!-- Bottom bun -->
  <rect x="40" y="105" width="120" height="15" rx="2" fill="#64a338"/> <!-- Lettuce -->
  <rect x="45" y="102" width="110" height="6" rx="1" fill="#de3c31"/> <!-- Tomato -->
  <rect x="45" y="95" width="110" height="10" rx="2" fill="#9f3c10"/> <!-- Meat patty -->
  <rect x="50" y="92" width="100" height="5" rx="1" fill="#ebd95e"/> <!-- Cheese -->
  <ellipse cx="100" cy="80" rx="60" ry="15" fill="#f6cd98" stroke="#d4a163" stroke-width="1"/> <!-- Top bun -->
  
  <!-- Sesame seeds -->
  <circle cx="80" cy="75" r="2" fill="#fff"/>
  <circle cx="90" cy="72" r="2" fill="#fff"/>
  <circle cx="100" cy="70" r="2" fill="#fff"/>
  <circle cx="110" cy="72" r="2" fill="#fff"/>
  <circle cx="120" cy="75" r="2" fill="#fff"/>
  <circle cx="130" cy="80" r="2" fill="#fff"/>
  <circle cx="70" cy="80" r="2" fill="#fff"/>
  
  <!-- French fries -->
  <rect x="150" y="90" width="8" height="40" rx="1" fill="#f6cd98"/>
  <rect x="160" y="85" width="8" height="45" rx="1" fill="#f6cd98"/>
  <rect x="170" y="95" width="8" height="35" rx="1" fill="#f6cd98"/>
  <rect x="180" y="100" width="8" height="30" rx="1" fill="#f6cd98"/>
  
  <!-- Ketchup blob -->
  <ellipse cx="170" cy="140" rx="30" ry="8" fill="#de3c31"/>
</svg>