<?xml version="1.0" encoding="UTF-8"?>
<svg width="200" height="200" viewBox="0 0 200 200" xmlns="http://www.w3.org/2000/svg">
  <!-- Background -->
  <rect x="0" y="0" width="200" height="200" fill="#f8f9fa" rx="20"/>
  
  <!-- Plate -->
  <circle cx="100" cy="110" r="70" fill="#f5f5f5" stroke="#e0e0e0" stroke-width="2"/>
  
  <!-- Pasta/Noodles -->
  <ellipse cx="100" cy="110" rx="40" ry="30" fill="#ffecd1"/>
  
  <!-- Spaghetti Strands -->
  <path d="M80,95 Q95,80 110,95" stroke="#ffd7ba" stroke-width="4" fill="none"/>
  <path d="M85,100 Q100,85 115,100" stroke="#ffd7ba" stroke-width="4" fill="none"/>
  <path d="M90,105 Q105,90 120,105" stroke="#ffd7ba" stroke-width="4" fill="none"/>
  <path d="M80,110 Q95,95 110,110" stroke="#ffd7ba" stroke-width="4" fill="none"/>
  <path d="M75,115 Q90,100 105,115" stroke="#ffd7ba" stroke-width="4" fill="none"/>
  <path d="M70,120 Q85,105 100,120" stroke="#ffd7ba" stroke-width="4" fill="none"/>
  <path d="M80,125 Q95,110 110,125" stroke="#ffd7ba" stroke-width="4" fill="none"/>
  <path d="M90,130 Q105,115 120,130" stroke="#ffd7ba" stroke-width="4" fill="none"/>
  
  <!-- Sauce -->
  <ellipse cx="100" cy="110" rx="35" ry="25" fill="#e63946" fill-opacity="0.7"/>
  
  <!-- Meatballs -->
  <circle cx="85" cy="100" r="8" fill="#774936"/>
  <circle cx="105" cy="115" r="8" fill="#774936"/>
  <circle cx="115" cy="95" r="8" fill="#774936"/>
  
  <!-- Herbs/Garnish -->
  <path d="M75,90 Q78,85 81,90" stroke="#606c38" stroke-width="1" fill="none"/>
  <path d="M76,88 Q78,84 80,88" stroke="#606c38" stroke-width="1" fill="none"/>
  
  <path d="M125,105 Q128,100 131,105" stroke="#606c38" stroke-width="1" fill="none"/>
  <path d="M126,103 Q128,99 130,103" stroke="#606c38" stroke-width="1" fill="none"/>
  
  <path d="M95,130 Q98,125 101,130" stroke="#606c38" stroke-width="1" fill="none"/>
  <path d="M96,128 Q98,124 100,128" stroke="#606c38" stroke-width="1" fill="none"/>
  
  <!-- Parmesan Cheese -->
  <circle cx="90" cy="105" r="1" fill="#f5f5f5"/>
  <circle cx="110" cy="95" r="1" fill="#f5f5f5"/>
  <circle cx="115" cy="110" r="1" fill="#f5f5f5"/>
  <circle cx="95" cy="115" r="1" fill="#f5f5f5"/>
  <circle cx="85" cy="110" r="1" fill="#f5f5f5"/>
  <circle cx="100" cy="100" r="1" fill="#f5f5f5"/>
  <circle cx="105" cy="105" r="1" fill="#f5f5f5"/>
  <circle cx="80" cy="100" r="1" fill="#f5f5f5"/>
  <circle cx="120" cy="105" r="1" fill="#f5f5f5"/>
  
  <!-- Fork -->
  <path d="M150,140 L170,90" stroke="#adb5bd" stroke-width="2" fill="none"/>
  <path d="M170,90 L173,87" stroke="#adb5bd" stroke-width="2" fill="none"/>
  <path d="M170,90 L173,87 Q175,85 173,83 L168,78" stroke="#adb5bd" stroke-width="2" fill="none"/>
  <path d="M170,90 L167,87 Q165,85 167,83 L172,78" stroke="#adb5bd" stroke-width="2" fill="none"/>
  <path d="M170,90 L170,87 Q170,85 168,83 L163,78" stroke="#adb5bd" stroke-width="2" fill="none"/>
  <path d="M170,90 L170,87 Q170,85 172,83 L177,78" stroke="#adb5bd" stroke-width="2" fill="none"/>
  
  <!-- Steam -->
  <path d="M85,60 Q80,50 85,40" stroke="#adb5bd" stroke-width="1" fill="none"/>
  <path d="M100,55 Q105,45 100,35" stroke="#adb5bd" stroke-width="1" fill="none"/>
  <path d="M115,60 Q120,50 115,40" stroke="#adb5bd" stroke-width="1" fill="none"/>
  
  <!-- Text Label -->
  <rect x="60" y="160" width="80" height="20" rx="10" fill="#e63946"/>
  <text x="100" y="175" font-family="Arial" font-size="12" font-weight="bold" text-anchor="middle" fill="#ffffff">Pasta</text>
</svg>