<?xml version="1.0" encoding="UTF-8"?>
<svg width="200" height="200" viewBox="0 0 200 200" xmlns="http://www.w3.org/2000/svg">
  <!-- Background -->
  <rect x="0" y="0" width="200" height="200" fill="#f8f9fa" rx="20"/>
  
  <!-- Kitchen Counter -->
  <rect x="30" y="100" width="140" height="60" fill="#dad7cd" stroke="#a3a380" stroke-width="2"/>
  <rect x="30" y="95" width="140" height="10" fill="#a3a380" stroke="#6c584c" stroke-width="1"/>
  
  <!-- Counter Top Items -->
  <!-- Chef Hat -->
  <path d="M40,95 Q40,75 50,75 Q55,65 60,75 Q70,75 70,95 Z" fill="#f5f5f5" stroke="#e0e0e0" stroke-width="1"/>
  
  <!-- Cooking Pot -->
  <rect x="80" y="70" width="30" height="25" rx="2" fill="#a98467" stroke="#6c584c" stroke-width="1"/>
  <path d="M75,70 L115,70" stroke="#6c584c" stroke-width="2"/>
  <path d="M87,55 L103,55 L103,70 L87,70 Z" fill="#a98467" stroke="#6c584c" stroke-width="1"/>
  <path d="M90,55 L90,50 Q95,45 100,50 L100,55" stroke="#6c584c" stroke-width="1" fill="none"/>
  
  <!-- Utensils -->
  <rect x="130" y="75" width="5" height="20" rx="1" fill="#a98467"/>
  <rect x="140" y="75" width="5" height="20" rx="1" fill="#a98467"/>
  <rect x="150" y="75" width="5" height="20" rx="1" fill="#a98467"/>
  <path d="M130,75 L135,65" stroke="#6c584c" stroke-width="1"/>
  <path d="M140,75 L145,65" stroke="#6c584c" stroke-width="1"/>
  <path d="M150,75 L155,65" stroke="#6c584c" stroke-width="1"/>
  
  <!-- Stove Burners -->
  <circle cx="50" cy="130" r="10" fill="#3d405b" stroke="#081c15" stroke-width="1"/>
  <circle cx="50" cy="130" r="6" fill="#081c15" stroke="#3d405b" stroke-width="1" stroke-dasharray="2 2"/>
  
  <circle cx="90" cy="130" r="10" fill="#3d405b" stroke="#081c15" stroke-width="1"/>
  <circle cx="90" cy="130" r="6" fill="#081c15" stroke="#3d405b" stroke-width="1" stroke-dasharray="2 2"/>
  
  <!-- Oven -->
  <rect x="120" y="110" width="40" height="40" fill="#3d405b" stroke="#081c15" stroke-width="1"/>
  <rect x="125" y="115" width="30" height="25" fill="#081c15" stroke="#3d405b" stroke-width="1"/>
  <circle cx="140" cy="145" r="3" fill="#d62828"/>
  
  <!-- Steam/Smoke -->
  <path d="M90,55 Q85,50 90,45 Q95,40 90,35" stroke="#e0e0e0" stroke-width="1" fill="none"/>
  <path d="M95,55 Q100,45 95,40 Q90,35 95,30" stroke="#e0e0e0" stroke-width="1" fill="none"/>
  <path d="M100,55 Q105,50 100,45 Q95,40 100,35" stroke="#e0e0e0" stroke-width="1" fill="none"/>
  
  <!-- Kitchen Wall Hooks -->
  <path d="M40,40 L160,40" stroke="#a3a380" stroke-width="2"/>
  <path d="M50,40 L50,50 Q55,55 60,50 L60,40" stroke="#6c584c" stroke-width="1" fill="none"/>
  <path d="M80,40 L80,45 Q85,50 90,45 L90,40" stroke="#6c584c" stroke-width="1" fill="none"/>
  <path d="M110,40 L110,55" stroke="#6c584c" stroke-width="1"/>
  <path d="M105,55 L115,55" stroke="#6c584c" stroke-width="1"/>
  <path d="M140,40 L140,50" stroke="#6c584c" stroke-width="1"/>
  <circle cx="140" cy="55" r="5" fill="#dad7cd" stroke="#6c584c" stroke-width="1"/>
</svg>