<?xml version="1.0" encoding="UTF-8"?>
<svg width="200px" height="200px" viewBox="0 0 200 200" version="1.1" xmlns="http://www.w3.org/2000/svg">
  <g id="Logo" stroke="none" stroke-width="1" fill="none" fill-rule="evenodd">
    <circle id="Background" fill="#FFD700" cx="100" cy="100" r="100"></circle>
    <g id="Icon" transform="translate(30, 50)">
      <path d="M128.4,69.2c0,6.6-2.1,12.6-5.6,17.5c-3.6,5-8.7,8.9-14.5,11.1c-0.8,0.3-1.5,0.5-2.3,0.8c-0.8,0.2-1.5,0.4-2.3,0.6
		c-0.8,0.2-1.6,0.3-2.4,0.4c-1.1,0.1-2.2,0.2-3.3,0.2l0,0H45.8c-1.5,0-3-0.1-4.5-0.4c-0.8-0.1-1.5-0.3-2.2-0.5
		c-1.1-0.3-2.2-0.6-3.2-1.1c-5.2-2.3-9.6-6.1-12.9-10.9c-3.6-5-5.7-11.2-5.7-17.9c0-8.1,3.1-15.4,8.3-20.8c5.1-5.4,12.2-8.8,20.1-8.8
		h54.7c7.9,0,15,3.3,20.1,8.7S128.4,61,128.4,69.2z" fill="#FF6347"/>
      <path d="M118.4,67.2c0,4.6-1.1,8.6-3.6,11.5c-1.6,2-3.7,3.9-6.5,5.1c-1.8,0.8-3.9,1.3-6.3,1.3H38.8c-2.3,0-4.4-0.5-6.2-1.3
		c-2.8-1.2-4.9-3.1-6.5-5.1c-2.4-2.9-3.6-6.9-3.6-11.5c0-4.6,1.1-8.6,3.6-11.5c1.6-2,3.7-3.9,6.5-5.1c1.8-0.8,3.9-1.3,6.2-1.3h63.2
		c2.3,0,4.4,0.5,6.3,1.3c2.8,1.2,4.9,3.1,6.5,5.1C117.2,58.5,118.4,62.5,118.4,67.2z" fill="#FFFFFF"/>
      <circle id="Plate" fill="#EEEEEE" cx="70" cy="67.2" r="35"></circle>
      <path d="M85,52.2c-0.8,0.1-1.6,0.2-2.4,0.3c-2.7,0.3-5.2,0.7-7.8,1.1c-1.3,0.2-2.5,0.4-3.8,0.6c-1.3,0.2-2.5,0.4-3.8,0.6
		c-1.3,0.2-2.5,0.4-3.8,0.5l-3.7,0.5c-1.2,0.2-2.5,0.3-3.8,0.3c-1.7,0-3.4-0.2-5-0.7c-0.8-0.3-1.6-0.6-2.4-1c0.3,0.2,0.7,0.3,1,0.5
		c1.4,0.6,2.9,1,4.4,1.1c1.5,0.1,3.1,0.1,4.6-0.1c1.5-0.2,3.1-0.4,4.6-0.7c1.5-0.2,3.1-0.5,4.6-0.7c1.5-0.2,3.1-0.5,4.6-0.7
		c1.5-0.2,3.1-0.5,4.6-0.7c1.5-0.2,3.1-0.4,4.6-0.6c0.8-0.1,1.5-0.2,2.3-0.3L85,52.2z" fill="#DD5555"/>
      <path d="M84.1,67.2c0,0.6-0.1,1.2-0.1,1.8c-0.1,0.6-0.2,1.2-0.3,1.7c-0.3,1.1-0.7,2.3-1.2,3.3c-1.1,2.1-2.5,4-4.3,5.5
		c-1.7,1.5-3.7,2.7-5.8,3.3c-0.5,0.2-1.1,0.3-1.7,0.4c-0.6,0.1-1.1,0.1-1.7,0.1c-1.2,0-2.3-0.2-3.4-0.5c-2.2-0.6-4.2-1.8-5.9-3.4
		c-1.7-1.6-3.1-3.4-4.1-5.5c-0.5-1-0.9-2.1-1.2-3.2c-0.1-0.6-0.2-1.1-0.3-1.7c-0.1-0.6-0.1-1.2-0.1-1.7c0-0.6,0.1-1.2,0.1-1.7
		c0.1-0.6,0.2-1.2,0.3-1.7c0.3-1.1,0.7-2.2,1.2-3.2c1-2.1,2.4-4,4.1-5.5c1.7-1.6,3.7-2.8,5.9-3.4c1.1-0.3,2.2-0.5,3.4-0.5
		c0.6,0,1.2,0,1.7,0.1c0.6,0.1,1.1,0.2,1.7,0.4c2.1,0.7,4.1,1.8,5.8,3.3c1.7,1.5,3.2,3.4,4.3,5.5c0.5,1.1,0.9,2.2,1.2,3.3
		c0.2,0.6,0.3,1.1,0.3,1.7C84,66,84.1,66.6,84.1,67.2z" fill="#904423" fill-opacity="0.8"/>
      <path d="M59.9,64.1c-0.1,1.4,0.2,2.7,0.5,4c0.3,1.3,0.8,2.5,1.3,3.7c0.5,1.2,1.2,2.3,1.9,3.3c0.7,1,1.6,2,2.6,2.7
		c-0.9-0.8-1.6-1.7-2.2-2.7c-0.6-1-1.1-2.1-1.5-3.3c-0.4-1.1-0.7-2.3-0.9-3.4c-0.2-1.2-0.3-2.3-0.1-3.5L59.9,64.1z" fill="#F4F4F4"/>
      <g id="Utensils" transform="translate(5, 10)" fill="#555555">
        <path d="M10,0 L10,50 M5,0 L5,50 M15,0 L15,50" stroke="#555555" stroke-width="3"/>
        <rect x="100" y="0" width="5" height="50" rx="2"/>
        <path d="M90,20 C90,5 110,5 110,20 L110,45 C110,48 107,50 105,50 L95,50 C93,50 90,48 90,45 Z" stroke="#555555" stroke-width="3" fill="#FFFFFF"/>
      </g>
    </g>
  </g>
</svg>