<?xml version="1.0" encoding="UTF-8"?>
<svg width="200" height="200" viewBox="0 0 200 200" xmlns="http://www.w3.org/2000/svg">
  <!-- Background -->
  <circle cx="100" cy="100" r="100" fill="#ffedd5"/>
  
  <!-- Outer Ring -->
  <circle cx="100" cy="100" r="90" fill="none" stroke="#fb923c" stroke-width="6"/>
  
  <!-- Restaurant Building -->
  <path d="M70,130 L70,75 L130,75 L130,130 Z" fill="#fb923c" stroke="#f97316" stroke-width="2"/>
  
  <!-- Roof -->
  <path d="M60,75 L100,50 L140,75 Z" fill="#c2410c" stroke="#9a3412" stroke-width="2"/>
  
  <!-- Door -->
  <rect x="90" y="105" width="20" height="25" rx="2" fill="#9a3412"/>
  <circle cx="95" cy="115" r="2" fill="#ffedd5"/>
  
  <!-- Windows -->
  <rect x="75" y="85" width="15" height="15" rx="2" fill="#ffedd5" stroke="#9a3412" stroke-width="1"/>
  <path d="M75,92.5 L90,92.5" stroke="#9a3412" stroke-width="1"/>
  <path d="M82.5,85 L82.5,100" stroke="#9a3412" stroke-width="1"/>
  
  <rect x="110" y="85" width="15" height="15" rx="2" fill="#ffedd5" stroke="#9a3412" stroke-width="1"/>
  <path d="M110,92.5 L125,92.5" stroke="#9a3412" stroke-width="1"/>
  <path d="M117.5,85 L117.5,100" stroke="#9a3412" stroke-width="1"/>
  
  <!-- Plate Underneath -->
  <ellipse cx="100" cy="145" rx="60" ry="15" fill="#fdba74" stroke="#f97316" stroke-width="2"/>
  
  <!-- Fork and Knife -->
  <rect x="65" y="60" width="4" height="35" rx="2" fill="#78350f" transform="rotate(-15, 65, 60)"/>
  <path d="M65,60 L61,50 L69,50 Z" fill="#78350f" transform="rotate(-15, 65, 60)"/>
  
  <rect x="135" y="60" width="4" height="35" rx="2" fill="#78350f" transform="rotate(15, 135, 60)"/>
  <path d="M135,60 L131,50 L139,50 Z" fill="#78350f" transform="rotate(15, 135, 60)"/>
  <rect x="135" y="40" width="4" height="10" rx="2" fill="#78350f" transform="rotate(15, 135, 40)"/>
  
  <!-- Decorative Text Banner -->
  <path d="M50,145 Q100,165 150,145" fill="none" stroke="#c2410c" stroke-width="2"/>
  
  <!-- Stars -->
  <path d="M40,40 L42,45 L48,45 L43,48 L45,54 L40,50 L35,54 L37,48 L32,45 L38,45 Z" fill="#fdba74"/>
  <path d="M160,40 L162,45 L168,45 L163,48 L165,54 L160,50 L155,54 L157,48 L152,45 L158,45 Z" fill="#fdba74"/>
  <path d="M100,30 L102,35 L108,35 L103,38 L105,44 L100,40 L95,44 L97,38 L92,35 L98,35 Z" fill="#fdba74"/>
</svg>